REM DIRINDEX 1\2,1\3,1\4,1\5,1\6
REM DIRNAME folder01,folder02,folder03,folder04,folder05,folder06
TITLE ""
FILE "Disc4Track47.mp3" MP3
  TRACK 01 AUDIO
    TITLE "2:cjc030_07418"
    INDEX 01 00:00:00
  TRACK 02 AUDIO
    TITLE "0:"
    INDEX 01 00:03:57
  TRACK 03 AUDIO
    TITLE "3:cjc030_07419"
    INDEX 01 00:04:19
  TRACK 04 AUDIO
    TITLE "0:"
    INDEX 01 00:05:30
  TRACK 05 AUDIO
    TITLE "4:cjc030_07420"
    INDEX 01 00:05:38
  TRACK 06 AUDIO
    TITLE "0:"
    INDEX 01 00:07:05
  TRACK 07 AUDIO
    TITLE "5:cjc030_07421"
    INDEX 01 00:07:17
  TRACK 08 AUDIO
    TITLE "0:"
    INDEX 01 00:08:28
  TRACK 09 AUDIO
    TITLE "6:cjc030_07422"
    INDEX 01 00:08:40
  TRACK 10 AUDIO
    TITLE "0:"
    INDEX 01 00:12:30
  TRACK 11 AUDIO
    TITLE "3:cjc030_07423"
    INDEX 01 00:13:00
  TRACK 12 AUDIO
    TITLE "0:"
    INDEX 01 00:14:13
  TRACK 13 AUDIO
    TITLE "4:cjc030_07424"
    INDEX 01 00:14:21
  TRACK 14 AUDIO
    TITLE "0:"
    INDEX 01 00:15:15
  TRACK 15 AUDIO
    TITLE "5:cjc030_07425"
    INDEX 01 00:15:23
  TRACK 16 AUDIO
    TITLE "0:"
    INDEX 01 00:16:36
  TRACK 17 AUDIO
    TITLE "6:cjc030_07426"
    INDEX 01 00:16:49
  TRACK 18 AUDIO
    TITLE "0:"
    INDEX 01 00:18:23
  TRACK 19 AUDIO
    TITLE "3:cjc030_07427"
    INDEX 01 00:18:72
  TRACK 20 AUDIO
    TITLE "0:"
    INDEX 01 00:20:28
  TRACK 21 AUDIO
    TITLE "4:cjc030_07428"
    INDEX 01 00:20:37
  TRACK 22 AUDIO
    TITLE "0:"
    INDEX 01 00:22:50
  TRACK 23 AUDIO
    TITLE "5:cjc030_07429"
    INDEX 01 00:22:60
  TRACK 24 AUDIO
    TITLE "0:"
    INDEX 01 00:24:12
  TRACK 25 AUDIO
    TITLE "3:cjc030_07430"
    INDEX 01 00:24:71
  TRACK 26 AUDIO
    TITLE "0:"
    INDEX 01 00:26:15
  TRACK 27 AUDIO
    TITLE "4:cjc030_07431"
    INDEX 01 00:26:22
  TRACK 28 AUDIO
    TITLE "0:"
    INDEX 01 00:27:24
  TRACK 29 AUDIO
    TITLE "5:cjc030_07432"
    INDEX 01 00:27:30
  TRACK 30 AUDIO
    TITLE "0:"
    INDEX 01 00:28:49
  TRACK 31 AUDIO
    TITLE "3:cjc030_07433"
    INDEX 01 00:29:31
  TRACK 32 AUDIO
    TITLE "0:"
    INDEX 01 00:30:52
  TRACK 33 AUDIO
    TITLE "4:cjc030_07434"
    INDEX 01 00:30:59
  TRACK 34 AUDIO
    TITLE "0:"
    INDEX 01 00:31:69
  TRACK 35 AUDIO
    TITLE "5:cjc030_07435"
    INDEX 01 00:32:03
  TRACK 36 AUDIO
    TITLE "0:"
    INDEX 01 00:33:22
  TRACK 37 AUDIO
    TITLE "6:cjc030_07436"
    INDEX 01 00:33:36
  TRACK 38 AUDIO
    TITLE "0:"
    INDEX 01 00:35:04
  TRACK 39 AUDIO
    TITLE "3:cjc030_07437"
    INDEX 01 00:35:55
  TRACK 40 AUDIO
    TITLE "0:"
    INDEX 01 00:36:72
  TRACK 41 AUDIO
    TITLE "4:cjc030_07438"
    INDEX 01 00:37:05
  TRACK 42 AUDIO
    TITLE "0:"
    INDEX 01 00:37:71
  TRACK 43 AUDIO
    TITLE "5:cjc030_07439"
    INDEX 01 00:38:06
  TRACK 44 AUDIO
    TITLE "0:"
    INDEX 01 00:39:23
  TRACK 45 AUDIO
    TITLE "6:cjc030_07440"
    INDEX 01 00:39:37
  TRACK 46 AUDIO
    TITLE "0:"
    INDEX 01 00:41:28
  TRACK 47 AUDIO
    TITLE "3:cjc030_07441"
    INDEX 01 00:42:00
  TRACK 48 AUDIO
    TITLE "0:"
    INDEX 01 00:43:15
  TRACK 49 AUDIO
    TITLE "4:cjc030_07442"
    INDEX 01 00:43:23
  TRACK 50 AUDIO
    TITLE "0:"
    INDEX 01 00:44:12
  TRACK 51 AUDIO
    TITLE "5:cjc030_07443"
    INDEX 01 00:44:22
  TRACK 52 AUDIO
    TITLE "0:"
    INDEX 01 00:45:35
  TRACK 53 AUDIO
    TITLE "3:cjc030_07444"
    INDEX 01 00:46:17
  TRACK 54 AUDIO
    TITLE "0:"
    INDEX 01 00:47:28
  TRACK 55 AUDIO
    TITLE "4:cjc030_07445"
    INDEX 01 00:47:36
  TRACK 56 AUDIO
    TITLE "0:"
    INDEX 01 00:49:33
  TRACK 57 AUDIO
    TITLE "5:cjc030_07446"
    INDEX 01 00:49:41
  TRACK 58 AUDIO
    TITLE "0:"
    INDEX 01 00:50:50
  TRACK 59 AUDIO
    TITLE "3:cjc030_07447"
    INDEX 01 00:51:32
  TRACK 60 AUDIO
    TITLE "0:"
    INDEX 01 00:52:39
  TRACK 61 AUDIO
    TITLE "4:cjc030_07448"
    INDEX 01 00:52:47
  TRACK 62 AUDIO
    TITLE "0:"
    INDEX 01 00:53:49
  TRACK 63 AUDIO
    TITLE "5:cjc030_07449"
    INDEX 01 00:53:58
  TRACK 64 AUDIO
    TITLE "0:"
    INDEX 01 00:54:64
  TRACK 65 AUDIO
    TITLE "3:cjc030_07450"
    INDEX 01 00:55:50
  TRACK 66 AUDIO
    TITLE "0:"
    INDEX 01 00:56:61
  TRACK 67 AUDIO
    TITLE "4:cjc030_07451"
    INDEX 01 00:56:69
  TRACK 68 AUDIO
    TITLE "0:"
    INDEX 01 00:59:08
  TRACK 69 AUDIO
    TITLE "5:cjc030_07452"
    INDEX 01 00:59:20
  TRACK 70 AUDIO
    TITLE "0:"
    INDEX 01 01:00:29
  TRACK 71 AUDIO
    TITLE "6:cjc030_07453"
    INDEX 01 01:00:41
  TRACK 72 AUDIO
    TITLE "0:"
    INDEX 01 01:03:51
  TRACK 73 AUDIO
    TITLE "3:cjc030_07454"
    INDEX 01 01:04:25
  TRACK 74 AUDIO
    TITLE "0:"
    INDEX 01 01:05:38
  TRACK 75 AUDIO
    TITLE "4:cjc030_07455"
    INDEX 01 01:05:48
  TRACK 76 AUDIO
    TITLE "0:"
    INDEX 01 01:06:55
  TRACK 77 AUDIO
    TITLE "5:cjc030_07456"
    INDEX 01 01:06:65
  TRACK 78 AUDIO
    TITLE "0:"
    INDEX 01 01:08:03
  TRACK 79 AUDIO
    TITLE "3:cjc030_07457"
    INDEX 01 01:08:60
  TRACK 80 AUDIO
    TITLE "0:"
    INDEX 01 01:10:00
  TRACK 81 AUDIO
    TITLE "4:cjc030_07458"
    INDEX 01 01:10:08
  TRACK 82 AUDIO
    TITLE "0:"
    INDEX 01 01:11:51
  TRACK 83 AUDIO
    TITLE "5:cjc030_07459"
    INDEX 01 01:11:58
  TRACK 84 AUDIO
    TITLE "0:"
    INDEX 01 01:12:73
  TRACK 85 AUDIO
    TITLE "3:cjc030_07460"
    INDEX 01 01:13:55
  TRACK 86 AUDIO
    TITLE "0:"
    INDEX 01 01:14:70
  TRACK 87 AUDIO
    TITLE "4:cjc030_07461"
    INDEX 01 01:15:05
  TRACK 88 AUDIO
    TITLE "0:"
    INDEX 01 01:16:20
  TRACK 89 AUDIO
    TITLE "5:cjc030_07462"
    INDEX 01 01:16:28
  TRACK 90 AUDIO
    TITLE "0:"
    INDEX 01 01:17:45
